<svg xmlns="http://www.w3.org/2000/svg" xmlns:xlink="http://www.w3.org/1999/xlink" contentStyleType="text/css" data-diagram-type="DESCRIPTION" height="689px" preserveAspectRatio="none" style="width:776px;height:689px;background:#FFFFFF;" version="1.1" viewBox="0 0 776 689" width="776px" zoomAndPan="magnify"><title>Container Diagram - Bid Calculation Tool</title><defs/><g><g class="title" data-source-line="15"><text fill="#000000" font-family="sans-serif" font-size="14" font-weight="bold" lengthAdjust="spacing" textLength="321.3574" x="220.6508" y="22.9951">Container Diagram - Bid Calculation Tool</text></g><!--cluster dockerEnv--><g class="cluster" data-entity="dockerEnv" data-source-line="20" data-uid="ent0006" id="cluster_dockerEnv"><rect fill="#E1F5FE" height="478.59" rx="2.5" ry="2.5" style="stroke:#0277BD;stroke-width:1;" width="498" x="7" y="205.0869"/><text fill="#000000" font-family="sans-serif" font-size="14" font-weight="bold" lengthAdjust="spacing" textLength="160.8086" x="175.5957" y="220.082">Docker Environment</text></g><!--cluster bidSystem--><g class="cluster" data-entity="bidSystem" data-source-line="21" data-uid="ent0007" id="cluster_bidSystem"><rect fill="#E1F5FE" height="395.59" rx="2.5" ry="2.5" style="stroke:#0277BD;stroke-width:1;" width="426" x="39" y="256.0869"/><text fill="#000000" font-family="sans-serif" font-size="14" font-weight="bold" lengthAdjust="spacing" textLength="156.9326" x="173.5337" y="271.082">Bid Calculation Tool</text></g><!--entity frontend--><g class="entity" data-entity="frontend" data-source-line="22" data-uid="ent0008" id="entity_frontend"><rect fill="#E8F5E8" height="52.5938" rx="2.5" ry="2.5" style="stroke:#0277BD;stroke-width:0.5;" width="150.7031" x="67.65" y="292.4969"/><text fill="#000000" font-family="sans-serif" font-size="14" lengthAdjust="spacing" textLength="130.7031" x="77.65" y="315.492">Frontend Web App</text><text fill="#000000" font-family="sans-serif" font-size="14" lengthAdjust="spacing" textLength="130.1152" x="77.65" y="331.7889">[Vue.js 3 / Docker]</text></g><g class="entity" data-entity="GMN9" data-source-line="23" data-uid="ent0010" id="entity_GMN9"><path d="M253.19,291.0869 L253.19,314.7869 L218.6,318.7869 L253.19,322.7869 L253.19,346.4853 A0,0 0 0 0 253.19,346.4853 L446.8145,346.4853 A0,0 0 0 0 446.8145,346.4853 L446.8145,301.0869 L436.8145,291.0869 L253.19,291.0869 A0,0 0 0 0 253.19,291.0869" fill="#FEFFDD" style="stroke:#181818;stroke-width:0.5;"/><path d="M436.8145,291.0869 L436.8145,301.0869 L446.8145,301.0869 L436.8145,291.0869" fill="#FEFFDD" style="stroke:#181818;stroke-width:0.5;"/><text fill="#000000" font-family="sans-serif" font-size="13" lengthAdjust="spacing" textLength="147.7354" x="259.19" y="308.1538">User interface to enter</text><text fill="#000000" font-family="sans-serif" font-size="13" lengthAdjust="spacing" textLength="172.6245" x="259.19" y="323.2866">vehicle details and display</text><text fill="#000000" font-family="sans-serif" font-size="13" lengthAdjust="spacing" textLength="118.5615" x="259.19" y="338.4194">calculation results</text></g><!--entity api--><g class="entity" data-entity="api" data-source-line="25" data-uid="ent0012" id="entity_api"><rect fill="#E8F5E8" height="52.5938" rx="2.5" ry="2.5" style="stroke:#0277BD;stroke-width:0.5;" width="176.8984" x="54.55" y="438.4869"/><text fill="#000000" font-family="sans-serif" font-size="14" lengthAdjust="spacing" textLength="86.96" x="64.55" y="461.482">API Backend</text><text fill="#000000" font-family="sans-serif" font-size="14" lengthAdjust="spacing" textLength="156.8984" x="64.55" y="477.7789">[.NET Core 8 / Docker]</text></g><g class="entity" data-entity="GMN13" data-source-line="26" data-uid="ent0014" id="entity_GMN13"><path d="M266.71,444.6569 L266.71,460.7869 L231.6,464.7869 L266.71,468.7869 L266.71,484.9225 A0,0 0 0 0 266.71,484.9225 L449.2959,484.9225 A0,0 0 0 0 449.2959,484.9225 L449.2959,454.6569 L439.2959,444.6569 L266.71,444.6569 A0,0 0 0 0 266.71,444.6569" fill="#FEFFDD" style="stroke:#181818;stroke-width:0.5;"/><path d="M439.2959,444.6569 L439.2959,454.6569 L449.2959,454.6569 L439.2959,444.6569" fill="#FEFFDD" style="stroke:#181818;stroke-width:0.5;"/><text fill="#000000" font-family="sans-serif" font-size="13" lengthAdjust="spacing" textLength="161.5859" x="272.71" y="461.7238">Provides REST endpoints</text><text fill="#000000" font-family="sans-serif" font-size="13" lengthAdjust="spacing" textLength="116.8477" x="272.71" y="476.8566">for bid calculation</text></g><!--entity domain--><g class="entity" data-entity="domain" data-source-line="28" data-uid="ent0016" id="entity_domain"><rect fill="#E8F5E8" height="52.5938" rx="2.5" ry="2.5" style="stroke:#0277BD;stroke-width:0.5;" width="117.8086" x="84.1" y="583.0869"/><text fill="#000000" font-family="sans-serif" font-size="14" lengthAdjust="spacing" textLength="97.8086" x="94.1" y="606.082">Domain Layer</text><text fill="#000000" font-family="sans-serif" font-size="14" lengthAdjust="spacing" textLength="93.7617" x="94.1" y="622.3789">[.NET Core 8]</text></g><g class="entity" data-entity="GMN17" data-source-line="29" data-uid="ent0018" id="entity_GMN17"><path d="M237.18,589.2469 L237.18,605.3769 L202.25,609.3769 L237.18,613.3769 L237.18,629.5125 A0,0 0 0 0 237.18,629.5125 L432.8294,629.5125 A0,0 0 0 0 432.8294,629.5125 L432.8294,599.2469 L422.8294,589.2469 L237.18,589.2469 A0,0 0 0 0 237.18,589.2469" fill="#FEFFDD" style="stroke:#181818;stroke-width:0.5;"/><path d="M422.8294,589.2469 L422.8294,599.2469 L432.8294,599.2469 L422.8294,589.2469" fill="#FEFFDD" style="stroke:#181818;stroke-width:0.5;"/><text fill="#000000" font-family="sans-serif" font-size="13" lengthAdjust="spacing" textLength="172.1357" x="243.18" y="606.3138">Business logic to calculate</text><text fill="#000000" font-family="sans-serif" font-size="13" lengthAdjust="spacing" textLength="174.6494" x="243.18" y="621.4466">fees based on vehicle type</text></g><!--entity user--><g class="entity" data-entity="user" data-source-line="17" data-uid="ent0002" id="entity_user"><ellipse cx="143.0029" cy="51.2969" fill="#FFF3E0" rx="8" ry="8" style="stroke:#FF6F00;stroke-width:0.5;"/><path d="M143.0029,59.2969 L143.0029,86.2969 M130.0029,67.2969 L156.0029,67.2969 M143.0029,86.2969 L130.0029,101.2969 M143.0029,86.2969 L156.0029,101.2969" fill="none" style="stroke:#FF6F00;stroke-width:0.5;"/><text fill="#000000" font-family="sans-serif" font-size="14" lengthAdjust="spacing" textLength="117.8857" x="84.06" y="115.792">Car Auction User</text></g><g class="entity" data-entity="GMN3" data-source-line="18" data-uid="ent0004" id="entity_GMN3"><path d="M236.85,60.8069 L236.85,76.9469 L202.21,80.9469 L236.85,84.9469 L236.85,101.0725 A0,0 0 0 0 236.85,101.0725 L421.1498,101.0725 A0,0 0 0 0 421.1498,101.0725 L421.1498,70.8069 L411.1498,60.8069 L236.85,60.8069 A0,0 0 0 0 236.85,60.8069" fill="#FEFFDD" style="stroke:#181818;stroke-width:0.5;"/><path d="M411.1498,60.8069 L411.1498,70.8069 L421.1498,70.8069 L411.1498,60.8069" fill="#FEFFDD" style="stroke:#181818;stroke-width:0.5;"/><text fill="#000000" font-family="sans-serif" font-size="13" lengthAdjust="spacing" textLength="163.2998" x="242.85" y="77.8738">Calculates the total price</text><text fill="#000000" font-family="sans-serif" font-size="13" lengthAdjust="spacing" textLength="144.644" x="242.85" y="93.0066">of a vehicle at auction</text></g><g class="entity" data-entity="GMN23" data-source-line="37" data-uid="ent0024" id="entity_GMN23"><path d="M532.35,291.0869 L532.35,346.4853 L769.6591,346.4853 L769.6591,301.0869 L759.6591,291.0869 L532.35,291.0869" fill="#FEFFDD" style="stroke:#181818;stroke-width:0.5;"/><path d="M759.6591,291.0869 L759.6591,301.0869 L769.6591,301.0869 L759.6591,291.0869" fill="#FEFFDD" style="stroke:#181818;stroke-width:1;"/><text fill="#000000" font-family="sans-serif" font-size="13" lengthAdjust="spacing" textLength="196.6504" x="538.35" y="308.1538">Docker Compose orchestrates</text><text fill="#000000" font-family="sans-serif" font-size="13" lengthAdjust="spacing" textLength="216.3091" x="538.35" y="323.2866">frontend and backend containers</text><text fill="#000000" font-family="sans-serif" font-size="13" lengthAdjust="spacing" textLength="210.1582" x="538.35" y="338.4194">with hot reload for development</text></g><!--link user to frontend--><g class="link" data-entity-1="user" data-entity-2="frontend" data-source-line="33" data-uid="lnk20" id="link_user_frontend"><path d="M143,119.5769 C143,167.9569 143,244.6669 143,286.2869" fill="none" id="user-to-frontend" style="stroke:#181818;stroke-width:1;"/><polygon fill="#181818" points="143,292.2869,147,283.2869,143,287.2869,139,283.2869,143,292.2869" style="stroke:#181818;stroke-width:1;"/><text fill="#000000" font-family="sans-serif" font-size="13" lengthAdjust="spacing" textLength="31.0591" x="154.4165" y="162.1538">Uses</text><text fill="#000000" font-family="sans-serif" font-size="13" lengthAdjust="spacing" textLength="51.8921" x="144" y="177.2866">[HTTPS]</text></g><!--link frontend to api--><g class="link" data-entity-1="frontend" data-entity-2="api" data-source-line="34" data-uid="lnk21" id="link_frontend_api"><path d="M143,345.5369 C143,371.7469 143,406.1369 143,432.2669" fill="none" id="frontend-to-api" style="stroke:#181818;stroke-width:1;"/><polygon fill="#181818" points="143,438.2669,147,429.2669,143,433.2669,139,429.2669,143,438.2669" style="stroke:#181818;stroke-width:1;"/><text fill="#000000" font-family="sans-serif" font-size="13" lengthAdjust="spacing" textLength="31.04" x="180.8323" y="389.5538">Calls</text><text fill="#000000" font-family="sans-serif" font-size="13" lengthAdjust="spacing" textLength="104.7046" x="144" y="404.6866">[REST API/JSON]</text></g><!--link api to domain--><g class="link" data-entity-1="api" data-entity-2="domain" data-source-line="35" data-uid="lnk22" id="link_api_domain"><path d="M143,491.2769 C143,517.0769 143,550.7369 143,576.6269" fill="none" id="api-to-domain" style="stroke:#181818;stroke-width:1;"/><polygon fill="#181818" points="143,582.6269,147,573.6269,143,577.6269,139,573.6269,143,582.6269" style="stroke:#181818;stroke-width:1;"/><text fill="#000000" font-family="sans-serif" font-size="13" lengthAdjust="spacing" textLength="82.8877" x="148.272" y="534.1538">Delegates to</text><text fill="#000000" font-family="sans-serif" font-size="13" lengthAdjust="spacing" textLength="91.4316" x="144" y="549.2866">[Service calls]</text></g><!--link dockerEnv to GMN23--><g class="link" data-entity-1="dockerEnv" data-entity-2="GMN23" data-source-line="37" data-uid="lnk25" id="link_dockerEnv_GMN23"><path d="M505.0045,318.7869 C505.0493,318.7869 505.0942,318.7869 505.1391,318.7869 C505.498,318.7869 505.857,318.7869 506.2159,318.7869 C509.0875,318.7869 511.9588,318.7869 514.83,318.7869 C520.5725,318.7869 526.315,318.7869 532.06,318.7869" fill="none" id="dockerEnv-GMN23" style="stroke:#181818;stroke-width:1;stroke-dasharray:7,7;"/></g><!--SRC=[XLFHRjem57ttLzospstPggw8XqaGagrJ1GYoxQ6WoTWNy6hio7QeqDH_ttL2CiQgBa-nx_7nkUSUdqbSAOCmJPEyF_hqaFv8nW_ZALoaxxBRB6LdX_eadSx6ewQOPTbDsccBoNYKz-z7wRGztCrkqovZ_acPWZk-1OSYSBFM2ByOq3VWucdjR6baOhLrf_VN6Eiakhf-qNb_TpSOifTZKYu2bLudF1RyBrkMVSWwdSWML21HYJM1KoiEXegl8_Sb39I4X6jHQXwKDP1RgnchxpnFk8D-AQh2Lu_k7BY7adwOiG71gVKcW5rLMz1hUT13s2046xY6mYc1SqCe3ZlSA452U01UqpBsnxFpeHLFH9IQdNBMRD64wa9PRTFkmOIZ4w-fhyuibPpjVS3juSp9kOpu0ne9tt49_QAOcyTl9Lxzz703rr3hM5H4gmRPZBjX-zk15jQhZ095AxVY8he061TpqtGlaQQWFN22I-KBpVTp8uwwSEXB7NnxrMiTz2VtLHheJX9_DKfp6gz3w9xevuNwZ_I8wC74sPsIDBbfEij9iImizU3dPaL183VXIE2RmePsInc31xwFFHyhMnocMTNVrdG0zM1GUWgizw3jMebePgE3ChL2qhla7YMGQuszOLzWHViIarz5y_Bouyc4gB77pta-cIrOMuYesWoAb8w8oWjo-leBlR85YyK8QjKDKUEwphib-0pTZi8U9Mg_OEoqfoR6lSE4o9TjOJs2TMA3FhX8HMqrWc90blMCGJHlbm3FAcnWOmFPhYsN44SaSKUB8ZuQzXi0]--></g></svg>